<svg width="31" height="37" viewBox="0 0 31 37" fill="none" xmlns="http://www.w3.org/2000/svg">
<path fill-rule="evenodd" clip-rule="evenodd" d="M0.607734 11.9308C-1.90735e-06 13.3066 -1.90735e-06 14.8717 -1.90735e-06 18.002V27.7781C-1.90735e-06 32.1253 -1.90735e-06 34.299 1.2971 35.6495C2.57236 36.9773 3.61179 36.9996 7.64807 37V25.4728C7.64807 23.5154 8 20.8459 11.2804 20.8459H19.7195C22.8981 20.8459 23.3518 23.5154 23.3518 25.4728V37C27.3882 36.9996 28.4276 36.9773 29.7029 35.6495C31 34.299 31 32.1253 31 27.7781V18.002C31 14.8717 31 13.3066 30.3923 11.9308C29.7845 10.5551 28.6432 9.53648 26.3605 7.49933L24.1462 5.5232C20.0203 1.84107 17.9574 -1.90735e-06 15.5 -1.90735e-06C13.0426 -1.90735e-06 10.9797 1.84107 6.85378 5.5232L4.63948 7.49932C2.35681 9.53648 1.21547 10.5551 0.607734 11.9308ZM19.7195 37V25.4728C19.7195 24.8836 19.2727 24.4888 18.8214 24.4888H12.1785C11.7272 24.4888 11.2804 24.8836 11.2804 25.4728V37H19.7195Z" fill="#FF9B0B"/>
</svg>
