<svg width="9" height="12" viewBox="0 0 9 12" fill="none" xmlns="http://www.w3.org/2000/svg">
<path d="M6.375 4.50022C6.375 3.90657 7.16458 3.74921 7.37406 4.30468C7.88079 5.64832 8.25 6.85031 8.25 7.50016C8.25 9.57123 6.57107 11.2502 4.5 11.2502C2.42893 11.2502 0.75 9.57123 0.75 7.50016C0.75 6.80198 1.17617 5.4665 1.74117 4.00274C2.47307 2.10659 2.83902 1.15852 3.29075 1.10745C3.4353 1.09111 3.59299 1.12049 3.72196 1.18779C4.125 1.39809 4.125 2.43214 4.125 4.50022C4.125 5.12154 4.62868 5.62522 5.25 5.62522C5.87132 5.62522 6.375 5.12154 6.375 4.50022Z" stroke="#00FF47"/>
<path d="M3.75 11.25L3.55291 10.7573C3.2112 9.90299 3.35524 8.93095 3.93001 8.21248V8.21248C4.22223 7.84722 4.77777 7.84722 5.06999 8.21248V8.21248C5.64476 8.93095 5.7888 9.90299 5.44709 10.7573L5.25 11.25" stroke="#00FF47"/>
</svg>
