<svg width="8" height="12" viewBox="0 0 8 12" fill="none" xmlns="http://www.w3.org/2000/svg">
<path d="M5.77291 6.33145L5.41083 6.67627L5.77291 6.33145ZM2.3001 2.40001C2.3001 1.68204 2.88213 1.10001 3.6001 1.10001V0.100006C2.32984 0.100006 1.3001 1.12975 1.3001 2.40001H2.3001ZM2.3001 5.50024V2.40001H1.3001V5.50024H2.3001ZM1.1001 8.40001C1.1001 7.73153 1.3618 7.12524 1.78936 6.67627L1.0652 5.98664C0.467658 6.61411 0.100098 7.46467 0.100098 8.40001H1.1001ZM3.6001 10.9C2.21939 10.9 1.1001 9.78072 1.1001 8.40001H0.100098C0.100098 10.333 1.6671 11.9 3.6001 11.9V10.9ZM6.1001 8.40001C6.1001 9.78072 4.98081 10.9 3.6001 10.9V11.9C5.53309 11.9 7.1001 10.333 7.1001 8.40001H6.1001ZM5.41083 6.67627C5.83839 7.12524 6.1001 7.73153 6.1001 8.40001H7.1001C7.1001 7.46467 6.73254 6.61411 6.135 5.98664L5.41083 6.67627ZM4.9001 2.40001V5.50024H5.9001V2.40001H4.9001ZM3.6001 1.10001C4.31807 1.10001 4.9001 1.68204 4.9001 2.40001H5.9001C5.9001 1.12975 4.87035 0.100006 3.6001 0.100006V1.10001ZM6.135 5.98664C5.97442 5.81803 5.9001 5.64621 5.9001 5.50024H4.9001C4.9001 5.98326 5.13762 6.38938 5.41083 6.67627L6.135 5.98664ZM1.3001 5.50024C1.3001 5.64622 1.22577 5.81803 1.0652 5.98664L1.78936 6.67627C2.06257 6.38938 2.3001 5.98327 2.3001 5.50024H1.3001Z" fill="#F15802"/>
<path d="M4.90005 8.40001C4.90005 9.11798 4.31802 9.70001 3.60005 9.70001C2.88208 9.70001 2.30005 9.11798 2.30005 8.40001C2.30005 7.68204 2.88208 7.10001 3.60005 7.10001C4.31802 7.10001 4.90005 7.68204 4.90005 8.40001Z" stroke="#F15802"/>
</svg>
