<svg width="14" height="13" viewBox="0 0 14 13" fill="none" xmlns="http://www.w3.org/2000/svg">
<path d="M11 3.58824L7.66667 5.52941L6.33333 4.23529H3.66667M11 3.58824L13 5.52941M11 3.58824L8.33333 8.11765H1V4.23529H3.66667M3.66667 4.23529V1M3.66667 1H1.66667M3.66667 1H5.66667M1 12L2 11.0294C2.0531 10.9779 2.07965 10.9521 2.10316 10.9314C2.61171 10.4827 3.38829 10.4827 3.89684 10.9314C3.92035 10.9521 3.9469 10.9779 4 11.0294L4.09902 11.1255C4.59662 11.6085 5.40338 11.6085 5.90098 11.1255L6.15016 10.8837C6.58981 10.4569 7.32178 10.5273 7.66667 11.0294C8.01156 11.5315 8.74352 11.6019 9.18317 11.1752L9.43235 10.9333C9.92995 10.4503 10.7367 10.4503 11.2343 10.9333L12.3333 12" stroke="#F18F02" stroke-linejoin="round"/>
</svg>
