<svg width="20" height="18" viewBox="0 0 20 18" fill="none" xmlns="http://www.w3.org/2000/svg">
<path d="M1 6.8541C1 5.83011 1.83011 5 2.8541 5V5C3.55638 5 4.19839 4.60322 4.51246 3.97508L5.33333 2.33333C5.44329 2.11342 5.49827 2.00346 5.56062 1.90782C5.8859 1.40882 6.41668 1.08078 7.00848 1.01299C7.1219 1 7.24484 1 7.49071 1H12.5093C12.7552 1 12.8781 1 12.9915 1.01299C13.5833 1.08078 14.1141 1.40882 14.4394 1.90782C14.5017 2.00346 14.5567 2.11342 14.6667 2.33333L15.4875 3.97508C15.8016 4.60322 16.4436 5 17.1459 5V5C18.1699 5 19 5.83011 19 6.8541V11.8571C19 13.8619 19 14.8643 18.5402 15.5961C18.3004 15.9777 17.9777 16.3004 17.5961 16.5402C16.8643 17 15.8619 17 13.8571 17H6.14286C4.1381 17 3.13571 17 2.4039 16.5402C2.02229 16.3004 1.69961 15.9777 1.45983 15.5961C1 14.8643 1 13.8619 1 11.8571V6.8541Z" stroke="#F18F02"/>
<circle cx="10" cy="10" r="3.5" stroke="#F18F02"/>
</svg>
