<svg width="20" height="19" viewBox="0 0 20 19" fill="none" xmlns="http://www.w3.org/2000/svg">
<path d="M10 18.5C12.0822 18.5 14.1 17.778 15.7095 16.4571C17.3191 15.1362 18.4209 13.298 18.8271 11.2558C19.2333 9.21363 18.9188 7.09376 17.9373 5.25743C16.9558 3.4211 15.3679 1.98191 13.4442 1.18508C11.5205 0.388262 9.37998 0.283107 7.38744 0.887536C5.3949 1.49197 3.67358 2.76858 2.51677 4.49987C1.35997 6.23115 0.839247 8.30998 1.04334 10.3822C1.24743 12.4543 2.1637 14.3916 3.63604 15.864" stroke="#F18F02" stroke-linecap="round"/>
<path d="M14 7.5L10.402 11.8175C9.74647 12.6042 9.41869 12.9976 8.97812 13.0176C8.53755 13.0375 8.17549 12.6755 7.45139 11.9514L6 10.5" stroke="#F18F02" stroke-linecap="round"/>
</svg>
