<svg width="17" height="16" viewBox="0 0 17 16" fill="none" xmlns="http://www.w3.org/2000/svg">
<path d="M8.43657 14.5C11.2738 14.5 13.6583 12.4018 13.6583 9.71429C13.6583 8.13508 12.8871 6.5574 12.0041 5.25651C11.113 3.94374 10.0617 2.84601 9.40763 2.21435C8.8613 1.68673 8.01185 1.68673 7.46552 2.21435C6.81144 2.84601 5.76017 3.94374 4.86907 5.25651C3.98604 6.5574 3.21484 8.13508 3.21484 9.71429C3.21484 12.4018 5.59938 14.5 8.43657 14.5Z" stroke="#F15802"/>
<path d="M8.43666 12C8.08233 12 7.73148 11.931 7.40413 11.797C7.07677 11.663 6.77933 11.4666 6.52879 11.219C6.27825 10.9713 6.0795 10.6774 5.94391 10.3538C5.80831 10.0303 5.73853 9.68353 5.73853 9.33334" stroke="#F15802" stroke-linecap="round"/>
</svg>
