<svg width="37" height="37" viewBox="0 0 37 37" fill="none" xmlns="http://www.w3.org/2000/svg">
<path fill-rule="evenodd" clip-rule="evenodd" d="M37 18.5C37 28.7173 28.7173 37 18.5 37C8.28273 37 0 28.7173 0 18.5C0 8.28273 8.28273 0 18.5 0C28.7173 0 37 8.28273 37 18.5ZM18.5 30.8333C17.3647 30.8333 16.4444 29.913 16.4444 28.7778V20.5556H8.22222C7.08697 20.5556 6.16667 19.6353 6.16667 18.5C6.16667 17.3647 7.08697 16.4444 8.22222 16.4444H16.4444V8.22222C16.4444 7.08697 17.3647 6.16667 18.5 6.16667C19.6353 6.16667 20.5556 7.08697 20.5556 8.22222V16.4444H28.7778C29.913 16.4444 30.8333 17.3647 30.8333 18.5C30.8333 19.6353 29.913 20.5556 28.7778 20.5556H20.5556V28.7778C20.5556 29.913 19.6353 30.8333 18.5 30.8333Z" fill="#FF9B0B"/>
</svg>
