<svg width="17" height="16" viewBox="0 0 17 16" fill="none" xmlns="http://www.w3.org/2000/svg">
<path d="M13.9967 11.5529C14.2378 10.6639 14.2686 9.7321 14.087 8.82946C13.9053 7.92682 13.516 7.07758 12.9491 6.34743C12.3822 5.61729 11.653 5.02581 10.8179 4.61876C9.9827 4.21171 9.06399 4 8.13281 4C7.20162 4 6.28292 4.21171 5.44776 4.61876C4.61261 5.02581 3.88339 5.61729 3.31652 6.34743C2.74965 7.07758 2.36033 7.92682 2.17866 8.82946C1.997 9.7321 2.02786 10.6639 2.26887 11.5529" stroke="#F18F02" stroke-linecap="round"/>
<path d="M8.64916 10.3882C8.97797 10.8611 8.74673 11.5825 8.13268 11.9996C7.51862 12.4167 6.75428 12.3714 6.42547 11.8985C6.11777 11.4559 5.14755 9.21698 4.41821 7.49082C4.21025 6.99861 4.81511 6.5878 5.20547 6.95613C6.57447 8.24785 8.34146 9.94565 8.64916 10.3882Z" stroke="#F18F02"/>
<path d="M8.13281 4V5.33333" stroke="#F18F02" stroke-linecap="round"/>
<path d="M3.84009 5.75716L4.79402 6.69997" stroke="#F18F02" stroke-linecap="round"/>
<path d="M12.4255 5.75716L11.4716 6.69997" stroke="#F18F02" stroke-linecap="round"/>
<path d="M13.9966 11.5527L12.6935 11.2076" stroke="#F18F02" stroke-linecap="round"/>
<path d="M2.2688 11.5527L3.5719 11.2076" stroke="#F18F02" stroke-linecap="round"/>
</svg>
